<mxfile host="app.diagrams.net" agent="Mozilla/5.0 (Windows NT 10.0; Win64; x64) AppleWebKit/537.36 (KHTML, like Gecko) Chrome/127.0.0.0 Safari/537.36" version="24.7.7">
  <diagram id="C5RBs43oDa-KdzZeNtuy" name="Page-1">
    <mxGraphModel dx="1114" dy="572" grid="0" gridSize="10" guides="1" tooltips="1" connect="1" arrows="1" fold="1" page="1" pageScale="1" pageWidth="827" pageHeight="1169" math="0" shadow="0">
      <root>
        <mxCell id="WIyWlLk6GJQsqaUBKTNV-0" />
        <mxCell id="WIyWlLk6GJQsqaUBKTNV-1" parent="WIyWlLk6GJQsqaUBKTNV-0" />
        <mxCell id="6ARQtRf-AZJhTA8qO8zz-4" value="&lt;div&gt;Pedido&lt;/div&gt;" style="swimlane;fontStyle=1;align=center;verticalAlign=top;childLayout=stackLayout;horizontal=1;startSize=26;horizontalStack=0;resizeParent=1;resizeParentMax=0;resizeLast=0;collapsible=1;marginBottom=0;whiteSpace=wrap;html=1;fillColor=none;" parent="WIyWlLk6GJQsqaUBKTNV-1" vertex="1">
          <mxGeometry x="115" y="153" width="160" height="140" as="geometry" />
        </mxCell>
        <mxCell id="6ARQtRf-AZJhTA8qO8zz-14" value="- total: Double" style="text;strokeColor=none;fillColor=none;align=left;verticalAlign=top;spacingLeft=4;spacingRight=4;overflow=hidden;rotatable=0;points=[[0,0.5],[1,0.5]];portConstraint=eastwest;whiteSpace=wrap;html=1;" parent="6ARQtRf-AZJhTA8qO8zz-4" vertex="1">
          <mxGeometry y="26" width="160" height="26" as="geometry" />
        </mxCell>
        <mxCell id="1EHcX_hx_ORuOIwkDta6-2" value="&amp;nbsp;- quantidade: Integer" style="text;html=1;align=left;verticalAlign=middle;whiteSpace=wrap;rounded=0;" parent="6ARQtRf-AZJhTA8qO8zz-4" vertex="1">
          <mxGeometry y="52" width="160" height="30" as="geometry" />
        </mxCell>
        <mxCell id="wJwikEfHZjN2HtzKCWWz-64" value="- taxaEntrega: Double" style="text;strokeColor=none;fillColor=none;align=left;verticalAlign=top;spacingLeft=4;spacingRight=4;overflow=hidden;rotatable=0;points=[[0,0.5],[1,0.5]];portConstraint=eastwest;whiteSpace=wrap;html=1;" parent="6ARQtRf-AZJhTA8qO8zz-4" vertex="1">
          <mxGeometry y="82" width="160" height="26" as="geometry" />
        </mxCell>
        <mxCell id="1EHcX_hx_ORuOIwkDta6-5" value="&amp;nbsp;- formaEntrega: String" style="text;html=1;align=left;verticalAlign=middle;whiteSpace=wrap;rounded=0;" parent="6ARQtRf-AZJhTA8qO8zz-4" vertex="1">
          <mxGeometry y="108" width="160" height="30" as="geometry" />
        </mxCell>
        <mxCell id="6ARQtRf-AZJhTA8qO8zz-6" value="" style="line;strokeWidth=1;fillColor=none;align=left;verticalAlign=middle;spacingTop=-1;spacingLeft=3;spacingRight=3;rotatable=0;labelPosition=right;points=[];portConstraint=eastwest;strokeColor=inherit;" parent="6ARQtRf-AZJhTA8qO8zz-4" vertex="1">
          <mxGeometry y="138" width="160" height="2" as="geometry" />
        </mxCell>
        <mxCell id="6ARQtRf-AZJhTA8qO8zz-8" value="&lt;div&gt;&lt;b&gt;ItemDoPedido&lt;/b&gt;&lt;/div&gt;" style="swimlane;fontStyle=0;childLayout=stackLayout;horizontal=1;startSize=26;fillColor=none;horizontalStack=0;resizeParent=1;resizeParentMax=0;resizeLast=0;collapsible=1;marginBottom=0;whiteSpace=wrap;html=1;" parent="WIyWlLk6GJQsqaUBKTNV-1" vertex="1">
          <mxGeometry x="125" y="353" width="140" height="86" as="geometry" />
        </mxCell>
        <mxCell id="6ARQtRf-AZJhTA8qO8zz-9" value="- valor: Double" style="text;strokeColor=none;fillColor=none;align=left;verticalAlign=top;spacingLeft=4;spacingRight=4;overflow=hidden;rotatable=0;points=[[0,0.5],[1,0.5]];portConstraint=eastwest;whiteSpace=wrap;html=1;" parent="6ARQtRf-AZJhTA8qO8zz-8" vertex="1">
          <mxGeometry y="26" width="140" height="26" as="geometry" />
        </mxCell>
        <mxCell id="6ARQtRf-AZJhTA8qO8zz-20" value="&lt;div&gt;- descricao: String&lt;/div&gt;" style="text;strokeColor=none;fillColor=none;align=left;verticalAlign=top;spacingLeft=4;spacingRight=4;overflow=hidden;rotatable=0;points=[[0,0.5],[1,0.5]];portConstraint=eastwest;whiteSpace=wrap;html=1;" parent="6ARQtRf-AZJhTA8qO8zz-8" vertex="1">
          <mxGeometry y="52" width="140" height="26" as="geometry" />
        </mxCell>
        <mxCell id="6ARQtRf-AZJhTA8qO8zz-21" value="" style="line;strokeWidth=1;fillColor=none;align=left;verticalAlign=middle;spacingTop=-1;spacingLeft=3;spacingRight=3;rotatable=0;labelPosition=right;points=[];portConstraint=eastwest;strokeColor=inherit;" parent="6ARQtRf-AZJhTA8qO8zz-8" vertex="1">
          <mxGeometry y="78" width="140" height="8" as="geometry" />
        </mxCell>
        <mxCell id="6ARQtRf-AZJhTA8qO8zz-22" value="Pizza" style="swimlane;fontStyle=0;childLayout=stackLayout;horizontal=1;startSize=26;fillColor=none;horizontalStack=0;resizeParent=1;resizeParentMax=0;resizeLast=0;collapsible=1;marginBottom=0;whiteSpace=wrap;html=1;" parent="WIyWlLk6GJQsqaUBKTNV-1" vertex="1">
          <mxGeometry x="125" y="505" width="140" height="115" as="geometry" />
        </mxCell>
        <mxCell id="6ARQtRf-AZJhTA8qO8zz-24" value="- tamanho: String" style="text;strokeColor=none;fillColor=none;align=left;verticalAlign=top;spacingLeft=4;spacingRight=4;overflow=hidden;rotatable=0;points=[[0,0.5],[1,0.5]];portConstraint=eastwest;whiteSpace=wrap;html=1;" parent="6ARQtRf-AZJhTA8qO8zz-22" vertex="1">
          <mxGeometry y="26" width="140" height="26" as="geometry" />
        </mxCell>
        <mxCell id="6ARQtRf-AZJhTA8qO8zz-29" value="- sabor: String" style="text;strokeColor=none;fillColor=none;align=left;verticalAlign=top;spacingLeft=4;spacingRight=4;overflow=hidden;rotatable=0;points=[[0,0.5],[1,0.5]];portConstraint=eastwest;whiteSpace=wrap;html=1;" parent="6ARQtRf-AZJhTA8qO8zz-22" vertex="1">
          <mxGeometry y="52" width="140" height="26" as="geometry" />
        </mxCell>
        <mxCell id="1EHcX_hx_ORuOIwkDta6-0" value="&amp;nbsp;- tipo: String" style="text;html=1;align=left;verticalAlign=middle;whiteSpace=wrap;rounded=0;" parent="6ARQtRf-AZJhTA8qO8zz-22" vertex="1">
          <mxGeometry y="78" width="140" height="30" as="geometry" />
        </mxCell>
        <mxCell id="6ARQtRf-AZJhTA8qO8zz-25" value="" style="line;strokeWidth=1;fillColor=none;align=left;verticalAlign=middle;spacingTop=-1;spacingLeft=3;spacingRight=3;rotatable=0;labelPosition=right;points=[];portConstraint=eastwest;strokeColor=inherit;" parent="6ARQtRf-AZJhTA8qO8zz-22" vertex="1">
          <mxGeometry y="108" width="140" height="7" as="geometry" />
        </mxCell>
        <mxCell id="wJwikEfHZjN2HtzKCWWz-38" value="" style="endArrow=block;endFill=1;html=1;edgeStyle=orthogonalEdgeStyle;align=left;verticalAlign=top;rounded=0;" parent="WIyWlLk6GJQsqaUBKTNV-1" source="6ARQtRf-AZJhTA8qO8zz-4" target="6ARQtRf-AZJhTA8qO8zz-8" edge="1">
          <mxGeometry x="-1" relative="1" as="geometry">
            <mxPoint x="357" y="584" as="sourcePoint" />
            <mxPoint x="517" y="584" as="targetPoint" />
          </mxGeometry>
        </mxCell>
        <mxCell id="wJwikEfHZjN2HtzKCWWz-41" value="&lt;div&gt;1..n&lt;/div&gt;" style="edgeLabel;html=1;align=center;verticalAlign=middle;resizable=0;points=[];" parent="wJwikEfHZjN2HtzKCWWz-38" vertex="1" connectable="0">
          <mxGeometry x="0.6716" relative="1" as="geometry">
            <mxPoint x="12" y="1" as="offset" />
          </mxGeometry>
        </mxCell>
        <mxCell id="wJwikEfHZjN2HtzKCWWz-48" value="Cliente" style="swimlane;fontStyle=1;align=center;verticalAlign=top;childLayout=stackLayout;horizontal=1;startSize=26;horizontalStack=0;resizeParent=1;resizeParentMax=0;resizeLast=0;collapsible=1;marginBottom=0;whiteSpace=wrap;html=1;fillColor=none;" parent="WIyWlLk6GJQsqaUBKTNV-1" vertex="1">
          <mxGeometry x="349" y="180" width="160" height="86" as="geometry" />
        </mxCell>
        <mxCell id="wJwikEfHZjN2HtzKCWWz-49" value="- nome: String" style="text;strokeColor=none;fillColor=none;align=left;verticalAlign=top;spacingLeft=4;spacingRight=4;overflow=hidden;rotatable=0;points=[[0,0.5],[1,0.5]];portConstraint=eastwest;whiteSpace=wrap;html=1;" parent="wJwikEfHZjN2HtzKCWWz-48" vertex="1">
          <mxGeometry y="26" width="160" height="26" as="geometry" />
        </mxCell>
        <mxCell id="wJwikEfHZjN2HtzKCWWz-52" value="- contato: String" style="text;strokeColor=none;fillColor=none;align=left;verticalAlign=top;spacingLeft=4;spacingRight=4;overflow=hidden;rotatable=0;points=[[0,0.5],[1,0.5]];portConstraint=eastwest;whiteSpace=wrap;html=1;" parent="wJwikEfHZjN2HtzKCWWz-48" vertex="1">
          <mxGeometry y="52" width="160" height="26" as="geometry" />
        </mxCell>
        <mxCell id="wJwikEfHZjN2HtzKCWWz-50" value="" style="line;strokeWidth=1;fillColor=none;align=left;verticalAlign=middle;spacingTop=-1;spacingLeft=3;spacingRight=3;rotatable=0;labelPosition=right;points=[];portConstraint=eastwest;strokeColor=inherit;" parent="wJwikEfHZjN2HtzKCWWz-48" vertex="1">
          <mxGeometry y="78" width="160" height="8" as="geometry" />
        </mxCell>
        <mxCell id="wJwikEfHZjN2HtzKCWWz-53" value="Endereco" style="swimlane;fontStyle=1;align=center;verticalAlign=top;childLayout=stackLayout;horizontal=1;startSize=26;horizontalStack=0;resizeParent=1;resizeParentMax=0;resizeLast=0;collapsible=1;marginBottom=0;whiteSpace=wrap;html=1;fillColor=none;" parent="WIyWlLk6GJQsqaUBKTNV-1" vertex="1">
          <mxGeometry x="601" y="176" width="160" height="86" as="geometry" />
        </mxCell>
        <mxCell id="wJwikEfHZjN2HtzKCWWz-54" value="- rua: String" style="text;strokeColor=none;fillColor=none;align=left;verticalAlign=top;spacingLeft=4;spacingRight=4;overflow=hidden;rotatable=0;points=[[0,0.5],[1,0.5]];portConstraint=eastwest;whiteSpace=wrap;html=1;" parent="wJwikEfHZjN2HtzKCWWz-53" vertex="1">
          <mxGeometry y="26" width="160" height="26" as="geometry" />
        </mxCell>
        <mxCell id="wJwikEfHZjN2HtzKCWWz-55" value="&lt;div&gt;- bairro: String&lt;/div&gt;" style="text;strokeColor=none;fillColor=none;align=left;verticalAlign=top;spacingLeft=4;spacingRight=4;overflow=hidden;rotatable=0;points=[[0,0.5],[1,0.5]];portConstraint=eastwest;whiteSpace=wrap;html=1;" parent="wJwikEfHZjN2HtzKCWWz-53" vertex="1">
          <mxGeometry y="52" width="160" height="26" as="geometry" />
        </mxCell>
        <mxCell id="wJwikEfHZjN2HtzKCWWz-56" value="" style="line;strokeWidth=1;fillColor=none;align=left;verticalAlign=middle;spacingTop=-1;spacingLeft=3;spacingRight=3;rotatable=0;labelPosition=right;points=[];portConstraint=eastwest;strokeColor=inherit;" parent="wJwikEfHZjN2HtzKCWWz-53" vertex="1">
          <mxGeometry y="78" width="160" height="8" as="geometry" />
        </mxCell>
        <mxCell id="wJwikEfHZjN2HtzKCWWz-58" value="" style="endArrow=block;endFill=1;html=1;edgeStyle=orthogonalEdgeStyle;align=left;verticalAlign=top;rounded=0;" parent="WIyWlLk6GJQsqaUBKTNV-1" source="wJwikEfHZjN2HtzKCWWz-48" target="6ARQtRf-AZJhTA8qO8zz-4" edge="1">
          <mxGeometry x="-1" relative="1" as="geometry">
            <mxPoint x="443" y="336" as="sourcePoint" />
            <mxPoint x="390" y="464" as="targetPoint" />
          </mxGeometry>
        </mxCell>
        <mxCell id="wJwikEfHZjN2HtzKCWWz-59" value="1" style="edgeLabel;resizable=0;html=1;align=left;verticalAlign=bottom;" parent="wJwikEfHZjN2HtzKCWWz-58" connectable="0" vertex="1">
          <mxGeometry x="-1" relative="1" as="geometry">
            <mxPoint x="-11" y="18" as="offset" />
          </mxGeometry>
        </mxCell>
        <mxCell id="wJwikEfHZjN2HtzKCWWz-60" value="&lt;div&gt;1..n&lt;/div&gt;" style="edgeLabel;html=1;align=center;verticalAlign=middle;resizable=0;points=[];" parent="wJwikEfHZjN2HtzKCWWz-58" vertex="1" connectable="0">
          <mxGeometry x="0.6716" relative="1" as="geometry">
            <mxPoint x="7" y="9" as="offset" />
          </mxGeometry>
        </mxCell>
        <mxCell id="wJwikEfHZjN2HtzKCWWz-61" value="" style="endArrow=block;endFill=1;html=1;edgeStyle=orthogonalEdgeStyle;align=left;verticalAlign=top;rounded=0;" parent="WIyWlLk6GJQsqaUBKTNV-1" source="wJwikEfHZjN2HtzKCWWz-49" target="wJwikEfHZjN2HtzKCWWz-53" edge="1">
          <mxGeometry x="-1" relative="1" as="geometry">
            <mxPoint x="754" y="271" as="sourcePoint" />
            <mxPoint x="523" y="293" as="targetPoint" />
          </mxGeometry>
        </mxCell>
        <mxCell id="wJwikEfHZjN2HtzKCWWz-62" value="1" style="edgeLabel;resizable=0;html=1;align=left;verticalAlign=bottom;" parent="wJwikEfHZjN2HtzKCWWz-61" connectable="0" vertex="1">
          <mxGeometry x="-1" relative="1" as="geometry">
            <mxPoint as="offset" />
          </mxGeometry>
        </mxCell>
        <mxCell id="wJwikEfHZjN2HtzKCWWz-79" value="&lt;div&gt;1..n&lt;/div&gt;" style="edgeLabel;html=1;align=center;verticalAlign=middle;resizable=0;points=[];" parent="wJwikEfHZjN2HtzKCWWz-61" vertex="1" connectable="0">
          <mxGeometry x="0.799" relative="1" as="geometry">
            <mxPoint x="-3" y="-10" as="offset" />
          </mxGeometry>
        </mxCell>
        <mxCell id="1EHcX_hx_ORuOIwkDta6-3" value="" style="endArrow=classic;html=1;rounded=0;exitX=0.5;exitY=0;exitDx=0;exitDy=0;entryX=0.5;entryY=1;entryDx=0;entryDy=0;" parent="WIyWlLk6GJQsqaUBKTNV-1" source="6ARQtRf-AZJhTA8qO8zz-22" target="6ARQtRf-AZJhTA8qO8zz-8" edge="1">
          <mxGeometry width="50" height="50" relative="1" as="geometry">
            <mxPoint x="175" y="497" as="sourcePoint" />
            <mxPoint x="225" y="447" as="targetPoint" />
          </mxGeometry>
        </mxCell>
        <mxCell id="1EHcX_hx_ORuOIwkDta6-7" value="1" style="edgeLabel;resizable=0;html=1;align=left;verticalAlign=bottom;" parent="WIyWlLk6GJQsqaUBKTNV-1" connectable="0" vertex="1">
          <mxGeometry x="195" y="310" as="geometry" />
        </mxCell>
      </root>
    </mxGraphModel>
  </diagram>
</mxfile>
